<svg width="64" height="64" viewBox="0 0 64 64" fill="none" xmlns="http://www.w3.org/2000/svg">
  <rect x="6" y="10" width="52" height="44" rx="12" fill="#EBF3FA"/>
  <rect x="6" y="10" width="52" height="44" rx="12" stroke="#1E4F7A" stroke-width="2"/>
  <rect x="10" y="14" width="44" height="36" rx="10" fill="white"/>
  <circle cx="22" cy="26" r="6" fill="#9EC3E6"/>
  <path d="M14 39C14 34.5817 17.5817 31 22 31C26.4183 31 30 34.5817 30 39V40H14V39Z" fill="#D9E8F5"/>
  <rect x="34" y="22" width="14" height="3" rx="1.5" fill="#7C97B3"/>
  <rect x="34" y="28" width="11" height="3" rx="1.5" fill="#A5B7C9"/>
  <rect x="34" y="34" width="9" height="3" rx="1.5" fill="#A5B7C9"/>
  <path d="M19 44L21.2 39.6C21.5388 38.9225 22.2312 38.4941 22.9888 38.4941H29.0112C29.7688 38.4941 30.4612 38.9225 30.8 39.6L33 44" stroke="#1E4F7A" stroke-width="2.2" stroke-linecap="round" stroke-linejoin="round"/>
  <path d="M21 44H31" stroke="#1E4F7A" stroke-width="2.2" stroke-linecap="round"/>
  <circle cx="23" cy="44" r="1.8" fill="#1E4F7A"/>
  <circle cx="29" cy="44" r="1.8" fill="#1E4F7A"/>
  <circle cx="49" cy="49" r="9" fill="#1E4F7A"/>
  <path d="M45.5 49L48 51.5L52.5 46.5" stroke="white" stroke-width="2.4" stroke-linecap="round" stroke-linejoin="round"/>
</svg>
